<svg width="129" height="25" viewBox="0 0 129 25" fill="none" xmlns="http://www.w3.org/2000/svg">
<path fill-rule="evenodd" clip-rule="evenodd" d="M17.2054 0.64828C17.1115 0.553392 16.9835 0.5 16.85 0.5C16.7165 0.5 16.5886 0.553389 16.4947 0.648276L2.39951 14.8897C2.32206 14.968 2.27572 15.0654 2.26048 15.1666L0.892352 22.1392C0.726774 22.2118 0.571661 22.316 0.43614 22.4518C-0.14538 23.0346 -0.14538 23.9797 0.43614 24.5629C1.01801 25.1457 1.96105 25.1457 2.54292 24.5629C2.62915 24.4765 2.70259 24.382 2.76324 24.282L9.9011 22.8523C10.0068 22.8311 10.1006 22.777 10.171 22.7004L24.253 8.47258C24.4458 8.27774 24.4458 7.96397 24.253 7.76913L17.2054 0.64828ZM1.92327 22.0788L3.0641 16.2646L8.79425 22.0541L2.95222 23.2243C2.89799 22.9412 2.76155 22.6709 2.54292 22.4518C2.36362 22.2721 2.15003 22.1478 1.92327 22.0788ZM20.7682 5.66969L16.85 1.71079L5.88407 12.7905L9.80221 16.7493L20.7682 5.66969ZM36.0312 13.8067H41.4313V11.6035H36.0312V8.35041H42.35V6.07229H33.2188V19.7223H42.3688V17.4629H36.0312V13.8067ZM44.667 9.57854V19.7223H47.3857V9.57854H44.667ZM44.9107 5.95041C44.642 6.21291 44.5076 6.54729 44.5076 6.95354C44.5076 7.36604 44.6451 7.70354 44.9201 7.96604C45.2013 8.22854 45.5701 8.35979 46.0263 8.35979C46.4826 8.35979 46.8482 8.22854 47.1232 7.96604C47.4045 7.70354 47.5451 7.36604 47.5451 6.95354C47.5451 6.54729 47.4076 6.21291 47.1326 5.95041C46.8576 5.68791 46.4888 5.55666 46.0263 5.55666C45.5576 5.55666 45.1857 5.68791 44.9107 5.95041ZM55.3089 16.141C55.6402 16.3285 55.8058 16.5879 55.8058 16.9192C55.8058 17.2379 55.6714 17.4973 55.4027 17.6973C55.1402 17.891 54.7496 17.9879 54.2308 17.9879C53.6746 17.9879 53.2308 17.8598 52.8996 17.6035C52.5683 17.3473 52.3902 16.9785 52.3652 16.4973H49.7964C49.7964 17.1098 49.9839 17.6817 50.3589 18.2129C50.7339 18.7379 51.2496 19.1535 51.9058 19.4598C52.5683 19.7598 53.3246 19.9098 54.1746 19.9098C55.4308 19.9098 56.4558 19.6254 57.2496 19.0567C58.0433 18.4817 58.4402 17.7317 58.4402 16.8067C58.4402 15.5129 57.7246 14.6035 56.2933 14.0785C55.8308 13.9098 55.2621 13.7598 54.5871 13.6285C53.9121 13.491 53.4308 13.3317 53.1433 13.1504C52.8621 12.9629 52.7214 12.7192 52.7214 12.4192C52.7214 12.1004 52.8464 11.8379 53.0964 11.6317C53.3464 11.4254 53.6996 11.3223 54.1558 11.3223C54.6871 11.3223 55.0777 11.4504 55.3277 11.7067C55.5777 11.9567 55.7027 12.2754 55.7027 12.6629H58.4121C58.4121 11.6942 58.0246 10.9067 57.2496 10.3004C56.4808 9.69416 55.4527 9.39104 54.1652 9.39104C52.9589 9.39104 51.9808 9.69416 51.2308 10.3004C50.4871 10.9004 50.1152 11.6504 50.1152 12.5504C50.1152 14.0942 51.3214 15.1192 53.7339 15.6254C54.4589 15.7754 54.9839 15.9473 55.3089 16.141ZM61.9103 18.541C62.8478 19.4535 64.0603 19.9098 65.5478 19.9098C66.3915 19.9098 67.1603 19.7504 67.854 19.4317C68.5478 19.1067 69.0978 18.6567 69.504 18.0817L68.1728 16.591C67.5853 17.3473 66.7696 17.7254 65.7259 17.7254C65.0509 17.7254 64.4915 17.5254 64.0478 17.1254C63.6103 16.7254 63.3478 16.1942 63.2603 15.5317H69.7196V14.4254C69.7196 12.8192 69.3196 11.5785 68.5196 10.7035C67.7259 9.82854 66.6353 9.39104 65.2478 9.39104C64.3228 9.39104 63.4978 9.60979 62.7728 10.0473C62.054 10.4785 61.4978 11.0973 61.104 11.9035C60.7103 12.7035 60.5134 13.6129 60.5134 14.6317V14.8942C60.5134 16.4129 60.979 17.6285 61.9103 18.541ZM63.9259 12.1285C64.2634 11.766 64.7009 11.5848 65.2384 11.5848C65.8134 11.5848 66.2571 11.7504 66.5696 12.0817C66.8821 12.4067 67.0446 12.8692 67.0571 13.4692V13.6848H63.2884C63.3821 13.0098 63.5946 12.491 63.9259 12.1285ZM83.1286 8.35041H87.3098V6.07229H76.1911V8.35041H80.3161V19.7223H83.1286V8.35041ZM93.4612 18.8129C93.5174 19.1754 93.608 19.4785 93.733 19.7223H96.4705V19.5629C96.208 19.0692 96.0737 18.341 96.0674 17.3785V12.9817C96.0674 11.8442 95.6987 10.9629 94.9612 10.3379C94.2299 9.70667 93.2393 9.39104 91.9893 9.39104C91.1643 9.39104 90.4205 9.53479 89.758 9.82229C89.0955 10.1035 88.583 10.4942 88.2205 10.9942C87.858 11.4942 87.6768 12.0379 87.6768 12.6254H90.3862C90.3862 12.2442 90.5143 11.9442 90.7705 11.7254C91.033 11.5067 91.3924 11.3973 91.8487 11.3973C92.3674 11.3973 92.7455 11.5379 92.983 11.8192C93.2268 12.1004 93.3487 12.4754 93.3487 12.9442V13.5254H92.1018C90.5955 13.5317 89.4424 13.8223 88.6424 14.3973C87.8487 14.9723 87.4518 15.7973 87.4518 16.8723C87.4518 17.7473 87.7768 18.4723 88.4268 19.0473C89.083 19.6223 89.908 19.9098 90.9018 19.9098C91.9518 19.9098 92.8049 19.5442 93.4612 18.8129ZM92.5987 17.5754C92.2612 17.7504 91.8924 17.8379 91.4924 17.8379C91.0799 17.8379 90.7549 17.7285 90.5174 17.5098C90.2799 17.291 90.1612 17.0129 90.1612 16.6754L90.1705 16.516C90.258 15.5785 90.9799 15.1098 92.3362 15.1098H93.3487V16.8535C93.1862 17.1535 92.9362 17.3942 92.5987 17.5754ZM103.831 16.141C104.163 16.3285 104.328 16.5879 104.328 16.9192C104.328 17.2379 104.194 17.4973 103.925 17.6973C103.663 17.891 103.272 17.9879 102.753 17.9879C102.197 17.9879 101.753 17.8598 101.422 17.6035C101.091 17.3473 100.913 16.9785 100.888 16.4973H98.3188C98.3188 17.1098 98.5063 17.6817 98.8813 18.2129C99.2563 18.7379 99.7719 19.1535 100.428 19.4598C101.091 19.7598 101.847 19.9098 102.697 19.9098C103.953 19.9098 104.978 19.6254 105.772 19.0567C106.566 18.4817 106.963 17.7317 106.963 16.8067C106.963 15.5129 106.247 14.6035 104.816 14.0785C104.353 13.9098 103.784 13.7598 103.109 13.6285C102.434 13.491 101.953 13.3317 101.666 13.1504C101.384 12.9629 101.244 12.7192 101.244 12.4192C101.244 12.1004 101.369 11.8379 101.619 11.6317C101.869 11.4254 102.222 11.3223 102.678 11.3223C103.209 11.3223 103.6 11.4504 103.85 11.7067C104.1 11.9567 104.225 12.2754 104.225 12.6629H106.934C106.934 11.6942 106.547 10.9067 105.772 10.3004C105.003 9.69416 103.975 9.39104 102.688 9.39104C101.481 9.39104 100.503 9.69416 99.7531 10.3004C99.0094 10.9004 98.6375 11.6504 98.6375 12.5504C98.6375 14.0942 99.8438 15.1192 102.256 15.6254C102.981 15.7754 103.506 15.9473 103.831 16.141ZM112.111 19.7223V16.6285L113.086 15.6535L115.692 19.7223H118.804L114.82 13.8067L118.486 9.57854H115.233L112.636 12.6254L112.111 13.3004V5.32229H109.401V19.7223H112.111ZM125.34 16.141C125.671 16.3285 125.837 16.5879 125.837 16.9192C125.837 17.2379 125.703 17.4973 125.434 17.6973C125.171 17.891 124.781 17.9879 124.262 17.9879C123.706 17.9879 123.262 17.8598 122.931 17.6035C122.6 17.3473 122.421 16.9785 122.396 16.4973H119.828C119.828 17.1098 120.015 17.6817 120.39 18.2129C120.765 18.7379 121.281 19.1535 121.937 19.4598C122.6 19.7598 123.356 19.9098 124.206 19.9098C125.462 19.9098 126.487 19.6254 127.281 19.0567C128.075 18.4817 128.471 17.7317 128.471 16.8067C128.471 15.5129 127.756 14.6035 126.325 14.0785C125.862 13.9098 125.293 13.7598 124.618 13.6285C123.943 13.491 123.462 13.3317 123.175 13.1504C122.893 12.9629 122.753 12.7192 122.753 12.4192C122.753 12.1004 122.878 11.8379 123.128 11.6317C123.378 11.4254 123.731 11.3223 124.187 11.3223C124.718 11.3223 125.109 11.4504 125.359 11.7067C125.609 11.9567 125.734 12.2754 125.734 12.6629H128.443C128.443 11.6942 128.056 10.9067 127.281 10.3004C126.512 9.69416 125.484 9.39104 124.196 9.39104C122.99 9.39104 122.012 9.69416 121.262 10.3004C120.518 10.9004 120.146 11.6504 120.146 12.5504C120.146 14.0942 121.353 15.1192 123.765 15.6254C124.49 15.7754 125.015 15.9473 125.34 16.141Z" fill="white"/>
</svg>
