<svg width="221" height="43" viewBox="0 0 221 43" fill="none" xmlns="http://www.w3.org/2000/svg">
<path d="M72.5507 19.3529H62.568V27.5162H74.1643V30H59.5305V6.96562H74.0061V9.46523H62.568V16.8691H72.5507V19.3529ZM81.8236 30H78.8969V12.8824H81.8236V30ZM78.6596 8.34199C78.6596 7.86738 78.8019 7.4666 79.0867 7.13965C79.382 6.81269 79.8144 6.64922 80.384 6.64922C80.9535 6.64922 81.3859 6.81269 81.6812 7.13965C81.9766 7.4666 82.1242 7.86738 82.1242 8.34199C82.1242 8.8166 81.9766 9.21211 81.6812 9.52851C81.3859 9.84492 80.9535 10.0031 80.384 10.0031C79.8144 10.0031 79.382 9.84492 79.0867 9.52851C78.8019 9.21211 78.6596 8.8166 78.6596 8.34199ZM97.6462 25.4596C97.6462 24.6686 97.3456 24.0568 96.7444 23.6244C96.1538 23.1814 95.1149 22.8018 93.6278 22.4854C92.1513 22.1689 90.9753 21.7893 90.0999 21.3463C89.2351 20.9033 88.5917 20.376 88.1698 19.7643C87.7585 19.1525 87.5528 18.4248 87.5528 17.5811C87.5528 16.1783 88.1435 14.9918 89.3247 14.0215C90.5165 13.0512 92.0353 12.566 93.881 12.566C95.8216 12.566 97.3931 13.067 98.5954 14.0689C99.8083 15.0709 100.415 16.3523 100.415 17.9133H97.4722C97.4722 17.1117 97.1294 16.4209 96.4439 15.8408C95.7689 15.2607 94.9146 14.9707 93.881 14.9707C92.8157 14.9707 91.9825 15.2027 91.3814 15.6668C90.7802 16.1309 90.4796 16.7373 90.4796 17.4861C90.4796 18.1928 90.7591 18.7254 91.3181 19.084C91.8771 19.4426 92.8843 19.7854 94.3398 20.1123C95.8058 20.4393 96.9923 20.8295 97.8993 21.283C98.8064 21.7365 99.4761 22.285 99.9085 22.9283C100.351 23.5611 100.573 24.3363 100.573 25.2539C100.573 26.7832 99.9612 28.0119 98.7378 28.94C97.5144 29.8576 95.9271 30.3164 93.9759 30.3164C92.6048 30.3164 91.3919 30.0738 90.3372 29.5887C89.2825 29.1035 88.4546 28.4285 87.8534 27.5637C87.2628 26.6883 86.9675 25.7443 86.9675 24.7318H89.8942C89.947 25.7127 90.3372 26.4932 91.0649 27.0732C91.8032 27.6428 92.7735 27.9275 93.9759 27.9275C95.0833 27.9275 95.9692 27.7061 96.6337 27.2631C97.3087 26.8096 97.6462 26.2084 97.6462 25.4596ZM112.646 30.3164C110.326 30.3164 108.438 29.557 106.982 28.0383C105.527 26.509 104.799 24.4682 104.799 21.9158V21.3779C104.799 19.6799 105.121 18.1664 105.764 16.8375C106.418 15.498 107.325 14.4539 108.485 13.7051C109.656 12.9457 110.922 12.566 112.282 12.566C114.508 12.566 116.237 13.299 117.471 14.765C118.705 16.2311 119.322 18.3299 119.322 21.0615V22.2797H107.726C107.768 23.9672 108.259 25.333 109.197 26.3771C110.147 27.4107 111.349 27.9275 112.804 27.9275C113.838 27.9275 114.713 27.7166 115.43 27.2947C116.148 26.8729 116.775 26.3139 117.313 25.6178L119.101 27.01C117.666 29.2143 115.515 30.3164 112.646 30.3164ZM112.282 14.9707C111.101 14.9707 110.11 15.4031 109.308 16.268C108.506 17.1223 108.011 18.3246 107.821 19.875H116.396V19.6535C116.311 18.1664 115.91 17.0168 115.193 16.2047C114.476 15.382 113.506 14.9707 112.282 14.9707ZM148.816 9.46523H141.412V30H138.39V9.46523H131.002V6.96562H148.816V9.46523ZM161.696 30C161.527 29.6625 161.39 29.0613 161.285 28.1965C159.924 29.6098 158.3 30.3164 156.412 30.3164C154.724 30.3164 153.337 29.8418 152.251 28.8926C151.175 27.9328 150.637 26.7199 150.637 25.2539C150.637 23.4715 151.312 22.0898 152.662 21.109C154.023 20.1176 155.932 19.6219 158.389 19.6219H161.237V18.2771C161.237 17.2541 160.931 16.442 160.32 15.8408C159.708 15.2291 158.806 14.9232 157.614 14.9232C156.57 14.9232 155.695 15.1869 154.988 15.7143C154.281 16.2416 153.928 16.8797 153.928 17.6285H150.986C150.986 16.7742 151.286 15.9516 151.887 15.1605C152.499 14.359 153.322 13.7262 154.355 13.2621C155.399 12.798 156.544 12.566 157.788 12.566C159.761 12.566 161.306 13.0617 162.424 14.0531C163.542 15.034 164.122 16.3893 164.164 18.1189V25.9975C164.164 27.5689 164.364 28.8187 164.765 29.7469V30H161.696ZM156.839 27.7693C157.757 27.7693 158.627 27.532 159.449 27.0574C160.272 26.5828 160.868 25.9658 161.237 25.2064V21.6943H158.943C155.357 21.6943 153.564 22.7437 153.564 24.8426C153.564 25.7602 153.87 26.4773 154.482 26.9941C155.094 27.5109 155.879 27.7693 156.839 27.7693ZM179.876 25.4596C179.876 24.6686 179.575 24.0568 178.974 23.6244C178.383 23.1814 177.344 22.8018 175.857 22.4854C174.381 22.1689 173.205 21.7893 172.329 21.3463C171.465 20.9033 170.821 20.376 170.399 19.7643C169.988 19.1525 169.782 18.4248 169.782 17.5811C169.782 16.1783 170.373 14.9918 171.554 14.0215C172.746 13.0512 174.265 12.566 176.11 12.566C178.051 12.566 179.623 13.067 180.825 14.0689C182.038 15.0709 182.644 16.3523 182.644 17.9133H179.702C179.702 17.1117 179.359 16.4209 178.673 15.8408C177.998 15.2607 177.144 14.9707 176.11 14.9707C175.045 14.9707 174.212 15.2027 173.611 15.6668C173.01 16.1309 172.709 16.7373 172.709 17.4861C172.709 18.1928 172.989 18.7254 173.548 19.084C174.107 19.4426 175.114 19.7854 176.569 20.1123C178.035 20.4393 179.222 20.8295 180.129 21.283C181.036 21.7365 181.706 22.285 182.138 22.9283C182.581 23.5611 182.802 24.3363 182.802 25.2539C182.802 26.7832 182.191 28.0119 180.967 28.94C179.744 29.8576 178.157 30.3164 176.205 30.3164C174.834 30.3164 173.621 30.0738 172.567 29.5887C171.512 29.1035 170.684 28.4285 170.083 27.5637C169.492 26.6883 169.197 25.7443 169.197 24.7318H172.124C172.176 25.7127 172.567 26.4932 173.294 27.0732C174.033 27.6428 175.003 27.9275 176.205 27.9275C177.313 27.9275 178.199 27.7061 178.863 27.2631C179.538 26.8096 179.876 26.2084 179.876 25.4596ZM192.55 22.074L190.715 23.9883V30H187.788V5.7H190.715V20.3971L192.281 18.5145L197.613 12.8824H201.172L194.512 20.0332L201.947 30H198.514L192.55 22.074ZM215.318 25.4596C215.318 24.6686 215.017 24.0568 214.416 23.6244C213.825 23.1814 212.786 22.8018 211.299 22.4854C209.823 22.1689 208.647 21.7893 207.771 21.3463C206.907 20.9033 206.263 20.376 205.841 19.7643C205.43 19.1525 205.224 18.4248 205.224 17.5811C205.224 16.1783 205.815 14.9918 206.996 14.0215C208.188 13.0512 209.707 12.566 211.552 12.566C213.493 12.566 215.065 13.067 216.267 14.0689C217.48 15.0709 218.086 16.3523 218.086 17.9133H215.144C215.144 17.1117 214.801 16.4209 214.115 15.8408C213.44 15.2607 212.586 14.9707 211.552 14.9707C210.487 14.9707 209.654 15.2027 209.053 15.6668C208.452 16.1309 208.151 16.7373 208.151 17.4861C208.151 18.1928 208.431 18.7254 208.99 19.084C209.549 19.4426 210.556 19.7854 212.011 20.1123C213.477 20.4393 214.664 20.8295 215.571 21.283C216.478 21.7365 217.148 22.285 217.58 22.9283C218.023 23.5611 218.244 24.3363 218.244 25.2539C218.244 26.7832 217.633 28.0119 216.409 28.94C215.186 29.8576 213.599 30.3164 211.647 30.3164C210.276 30.3164 209.063 30.0738 208.009 29.5887C206.954 29.1035 206.126 28.4285 205.525 27.5637C204.934 26.6883 204.639 25.7443 204.639 24.7318H207.566C207.618 25.7127 208.009 26.4932 208.736 27.0732C209.475 27.6428 210.445 27.9275 211.647 27.9275C212.755 27.9275 213.641 27.7061 214.305 27.2631C214.98 26.8096 215.318 26.2084 215.318 25.4596Z" fill="#505050"/>
<path fill-rule="evenodd" clip-rule="evenodd" d="M26.8668 33.5507L21.9731 38.4444L9.55566 26.027L14.4494 21.1333L26.8668 33.5507Z" fill="#74BBFD"/>
<path fill-rule="evenodd" clip-rule="evenodd" d="M21.6441 38.4445L16.8447 33.6451L41.2009 9.28894L46.0003 14.0883L21.6441 38.4445Z" fill="#74BBFD"/>
<path fill-rule="evenodd" clip-rule="evenodd" d="M9.66634 42.1996C8.59859 43.2668 6.86808 43.2668 5.80033 42.1996C4.73322 41.1319 4.73322 39.4013 5.80033 38.3342C6.86808 37.2664 8.59859 37.2664 9.66634 38.3342C10.7334 39.4013 10.7334 41.1319 9.66634 42.1996Z" fill="#74BBFD"/>
<path fill-rule="evenodd" clip-rule="evenodd" d="M21.7038 38.4444L9.55566 26.2965L33.852 2L46.0001 14.1485L21.7038 38.4444Z" stroke="#74BBFD" stroke-width="1.26" stroke-linecap="round" stroke-linejoin="round"/>
<path fill-rule="evenodd" clip-rule="evenodd" d="M6.82227 41.1777L9.89289 25.6888L22.3112 38.1071L6.82227 41.1777Z" stroke="#74BBFD" stroke-width="1.26" stroke-linecap="round" stroke-linejoin="round"/>
</svg>
